<svg version="1.2" xmlns="http://www.w3.org/2000/svg" viewBox="0 0 503 200" width="503" height="200">
	<style>
		.s0 { opacity: .99;fill: #ffffff } 
	</style>
	<path id="Path 0" fill-rule="evenodd" class="s0" d="m131 0.52c4.67 0.26 10.52 1.09 13 1.85 2.47 0.76 6.74 2.45 9.47 3.76 2.73 1.3 7.19 4.62 9.9 7.37 2.71 2.75 6.2 7.7 7.77 11 1.56 3.3 3.56 9.37 4.45 13.5 1.18 5.54 1.47 10.76 1.11 20-0.26 6.87-1.22 15.65-2.13 19.5-0.91 3.85-2.92 10.6-4.48 15-1.56 4.4-4.08 10.47-5.6 13.5-1.52 3.02-4.19 7.75-5.93 10.5-1.75 2.75-3.49 5.56-3.87 6.25-0.45 0.82 0.79 1.99 3.56 3.38 2.34 1.16 7.96 4.54 12.5 7.5 4.54 2.95 10.07 7.06 12.3 9.12 2.22 2.06 4.02 4.31 4 5-0.03 0.69-1.4 2.6-3.05 4.25-1.65 1.65-3.68 3-4.5 3-0.83 0-5.21-2.81-9.75-6.25-4.55-3.44-11.74-8.05-23.71-14.25l-10.77 10.58c-5.92 5.82-13.02 12.38-15.77 14.59-2.75 2.2-8.38 6.28-12.5 9.05-4.13 2.77-12.23 7.55-18 10.61-5.78 3.06-14.78 7.19-20 9.18-5.23 2-14 4.9-19.5 6.46-5.5 1.56-14.5 3.4-20 4.09-8.8 1.1-10.69 1.05-15.75-0.4-3.52-1.02-7.2-2.99-9.5-5.08-3.37-3.08-3.74-3.92-3.69-8.25 0.04-3.37 0.95-6.46 3-10.23 1.62-2.96 6.76-9.44 11.44-14.4 4.67-4.95 13.96-13.09 20.63-18.1 6.67-5 15.45-11 19.5-13.33 4.05-2.33 11.19-5.58 15.87-7.22 4.67-1.65 10.3-3.44 16.5-4.98l8.39-74.57 3.05-2.75c1.68-1.51 3.96-2.75 5.06-2.75 1.73 0 1.93 0.5 1.5 3.75-0.28 2.06-2.06 17.92-3.97 35.25-1.91 17.32-3.7 33.07-4.48 38.5l15.22 0.7c9.89 0.45 17.86 1.39 22.73 2.67 4.12 1.08 8.74 2.45 10.25 3.05 2.68 1.05 2.86 0.9 6.67-5.67 2.15-3.71 5.35-10.35 7.11-14.75 1.77-4.4 4.1-11.38 5.18-15.5 1.15-4.36 2.21-12.52 2.54-19.5 0.36-7.77 0.11-14.29-0.7-18.5-0.69-3.58-2.46-9.2-3.95-12.5-1.48-3.3-4.69-8.19-7.14-10.87-2.51-2.74-7.09-6.18-10.46-7.87-3.3-1.65-9.15-3.66-13-4.46-4.81-1-9.35-1.24-14.5-0.77-4.13 0.37-11.33 1.78-16 3.12-4.68 1.34-13 4.62-18.5 7.3-5.5 2.68-14.86 8.17-20.8 12.21-5.95 4.04-11.88 8.01-13.19 8.84-1.32 0.82-2.68 1.27-3.03 1-0.36-0.28-0.38-1.74-0.06-3.25 0.44-2.1 3.26-4.64 11.83-10.7 6.19-4.38 16.87-10.87 23.75-14.43 6.87-3.56 16.1-7.68 20.5-9.15 4.4-1.48 10.92-3.3 14.5-4.05 3.96-0.83 9.82-1.18 15-0.9zm-35.44 129.23c-0.35 3.16-0.92 7.77-1.25 10.25-0.43 3.11-1.5 5.35-3.46 7.25-1.57 1.51-3.75 2.75-4.85 2.75-1.84 0-1.95-0.46-1.38-5.75 0.34-3.16 1.08-8.61 1.64-12.1l1.03-6.35c-6.42 0.93-11.33 2.2-15.04 3.42-3.71 1.22-10.8 4.27-15.75 6.78-4.95 2.51-12.82 7.47-17.5 11.03-4.67 3.56-11 8.94-14.06 11.97-3.06 3.02-7.08 7.75-8.93 10.5-1.91 2.84-3.57 6.73-3.83 9-0.38 3.27-0.03 4.42 1.93 6.29 1.31 1.26 4.19 2.78 6.39 3.38 2.2 0.6 7.6 1.05 12 1 4.4-0.06 11.6-0.79 16-1.63 4.4-0.85 10.92-2.49 14.5-3.64 3.57-1.16 12.35-4.95 19.5-8.42 7.15-3.47 17.72-9.43 23.5-13.25 5.77-3.81 13.87-10.04 18-13.83 4.12-3.8 9.52-9.05 12-11.67 2.47-2.63 4.27-4.95 4-5.18-0.28-0.22-4.55-1.57-9.5-3.01-4.95-1.43-11.7-3.03-15-3.56-3.3-0.53-8.99-0.97-12.65-0.97l-6.64-0.01zm356.93-108.75c0.83 0 2.87 1.91 4.53 4.25 1.67 2.34 3.02 5.26 3 6.5-0.01 1.24-2.05 8.89-4.53 17-2.48 8.11-4.39 14.89-4.25 15.05 0.14 0.17 10.38-0.47 22.75-1.4 12.38-0.94 23.18-1.49 24-1.21 0.83 0.27 2.33 2.26 3.34 4.4 1 2.15 1.45 4.21 1 4.57-0.46 0.36-12.94 1.48-54.65 4.34l-2.88 10c-1.59 5.5-4.64 17.2-6.79 26-2.14 8.8-5.03 22.3-6.41 30-1.39 7.7-3.33 19.07-4.32 25.27-0.98 6.19-2.12 11.26-2.54 11.25-0.41-0.01-2.1-1.59-3.75-3.52-1.65-1.92-3.29-4.74-3.64-6.25-0.36-1.51 0.55-10.62 2.02-20.25 1.46-9.62 2.54-17.62 2.39-17.77-0.15-0.14-1.43 1.43-2.85 3.5-1.43 2.08-5.2 5.57-8.38 7.77-4.78 3.31-6.59 3.99-10.41 3.93-2.82-0.04-5.75-0.82-7.51-2-1.59-1.06-4.05-3.96-5.46-6.43-2.2-3.83-2.58-5.69-2.55-12.5 0.02-6.19 0.69-9.93 2.96-16.5 1.86-5.39 3.46-8.5 4.38-8.5 0.79 0 2.33 1.58 5.37 7l-2.69 8c-1.61 4.79-2.78 10.61-3.13 21l5-0.22c3.42-0.16 6.19-1.03 8.75-2.75 2.07-1.39 5.14-4.44 6.83-6.78 1.68-2.34 3.59-4.25 4.24-4.25 0.64 0 2.29 1.72 6.18 7.66l3.69-16.83c2.03-9.26 4.64-20.2 5.8-24.33 1.15-4.13 2.37-8.4 2.71-9.5 0.59-1.95 0.31-1.98-21.7-0.5l-2.03-2.75c-1.12-1.51-2.02-3.76-2-5 0.03-2.18 0.43-2.27 12.78-2.88 7.02-0.35 13.58-0.91 14.59-1.25 1.4-0.47 3.37-5.66 8.22-21.62 3.5-11.55 6.39-21.34 6.41-21.75 0.02-0.41 0.71-0.75 1.53-0.75zm-186.2-0.05c0.66-0.02 2.39 1.44 3.85 3.25 1.45 1.82 2.95 4.43 3.33 5.8 0.45 1.68-0.84 7.56-3.96 18-2.55 8.53-4.5 15.64-4.33 15.81 0.17 0.17 9.76-0.4 21.31-1.26 11.55-0.87 22.24-1.57 23.75-1.56 2.05 0.01 3.13 0.77 4.25 3.01 0.83 1.65 1.51 3.79 1.51 4.75 0.01 1.52-1.46 1.85-11 2.5-6.05 0.41-10.99 1.09-10.97 1.5 0.02 0.41 0.68 1.88 1.46 3.25 0.79 1.38 1.46 4.3 1.49 6.5 0.03 2.56-1.09 6.33-6.33 17l2.9 2c1.6 1.1 4.49 3.52 9.94 8.77l-0.86 7.61c-0.47 4.19-0.92 8.83-1 10.31-0.08 1.48 0.44 3.28 1.15 4 1.06 1.08 1.75 1.05 3.94-0.19 1.47-0.82 4.15-3.41 5.97-5.75 2.22-2.86 3.29-5.31 3.27-7.5-0.02-1.79 1.22-5.65 2.75-8.58 1.53-2.94 4.58-7.53 6.78-10.2 2.2-2.68 4.34-4.89 4.75-4.92 0.42-0.03 1.99-1.2 3.5-2.61 1.52-1.41 3.65-2.81 4.75-3.11 1.1-0.3 3.35-0.24 5 0.12 1.87 0.42 5.21 3.02 14.63 13.05l7.19-1.91c3.95-1.04 10.9-3.41 15.43-5.25 7.27-2.94 8.26-3.13 8.29-1.59 0.02 0.96-1 3.06-2.25 4.67-1.26 1.6-4.31 3.78-6.79 4.83-2.47 1.05-7.65 2.98-11.5 4.3-5.51 1.88-6.93 2.76-6.67 4.17 0.18 0.98 0.37 4.03 0.42 6.78 0.07 3.42-0.67 6.56-2.32 9.93-1.34 2.72-4.23 6.44-6.43 8.28-2.2 1.84-5.57 4.09-7.5 5.01-1.92 0.92-5.75 1.64-8.5 1.62-2.75-0.02-6.57-0.84-8.5-1.81-1.92-0.97-4.55-2.72-5.84-3.9-1.3-1.17-3.21-3.82-6.16-9.63l-5.25 5.63c-2.88 3.09-6.93 6.47-9 7.5-2.06 1.03-4.65 1.87-5.75 1.87-1.1 0-2.67-0.67-3.5-1.5-0.86-0.87-1.49-3.3-1.49-5.75 0-2.34 0.52-6.72 1.16-9.75 0.94-4.47 0.89-6.05-0.26-8.44-0.77-1.61-3.54-4.2-10.91-8.56l-3 2.5c-1.65 1.38-3.67 2.5-4.5 2.5-0.83 0-1.5-0.89-1.5-2 0-1.1 1.07-3.24 4.73-7.5l-1.99-4.5c-1.44-3.26-1.89-6.03-1.61-10.08 0.27-4.08 1.25-7.02 3.66-11 1.8-2.98 3.15-5.5 3-5.59-0.16-0.09-4.54 0.14-19.21 1.17l-2.3 7.5c-1.27 4.13-4.3 15.6-6.73 25.5-2.43 9.9-5.55 24.07-6.94 31.5-1.38 7.43-3.32 19.02-4.31 25.76-0.99 6.75-2.13 12.26-2.55 12.25-0.41 0-2.1-1.47-3.76-3.26-1.65-1.79-3.27-4.6-3.59-6.25-0.33-1.65-0.08-7.05 0.55-12 0.63-4.95 2.5-16.42 4.17-25.5 1.66-9.07 5.13-24.97 12.38-54.16l-22.77 0.66-2.11-3.8c-1.37-2.45-1.76-4.1-1.12-4.64 0.55-0.46 7.3-1.32 15-1.9 7.7-0.59 14.1-1.2 14.22-1.36 0.12-0.17 2.06-6.37 4.31-13.8 2.25-7.43 5.21-17.21 6.58-21.75 1.37-4.54 3.03-8.27 3.69-8.3zm18.7 69.55c0.7 1.63 0.87 1.36 0.92-1.5 0.03-1.92-0.38-4.17-0.92-5-0.74-1.15-0.95-0.79-0.91 1.5 0.03 1.65 0.44 3.9 0.91 5zm64.5 12l3 0.64c-3.87-3.27-5.9-4.21-7-4.19-1.77 0.02-1.82 0.19-0.5 1.47 0.83 0.8 2.85 1.73 4.5 2.08zm-23.84 14.5c-0.89 1.38-2.06 4.08-2.61 6-0.55 1.93-0.79 4.51-0.53 5.75 0.27 1.24 1.83 2.93 3.48 3.75 1.65 0.83 4.58 1.5 6.5 1.5 1.93 0 5.42-0.95 7.75-2.12 2.34-1.17 6.05-3.56 8.25-5.33 2.2-1.76 4.77-4.74 5.7-6.63 0.94-1.88 1.84-4.52 2-5.85l0.3-2.44c-16.81 0.5-18.36 0.26-20.75-1.55-1.51-1.14-2.95-2.08-3.2-2.08-0.25 0-1.54 1.46-2.87 3.25-1.33 1.79-3.14 4.38-4.02 5.75zm73.34-39.74c1.75 0.17 3.01 1.29 4.18 3.74 0.93 1.93 1.49 4.06 1.25 4.75-0.23 0.69-1.1 1.25-1.93 1.25-0.82 0-3.41 0.96-5.75 2.14-2.39 1.21-5.01 1.86-6 1.5-0.96-0.35-2.37-2.1-3.14-3.89-0.77-1.79-1.23-3.7-1.03-4.25 0.19-0.55 2.51-2.01 5.14-3.24 2.63-1.23 5.91-2.13 7.28-2zm-186.3 10.74c1.3 0 2.74 0.87 3.3 2 0.7 1.4 0.58 3.57-0.42 7.25-0.81 2.95-3.38 7.88-5.88 11.25-2.45 3.3-6.54 7.69-13.7 13.5l3 2.5c2.22 1.85 4.17 2.5 7.5 2.5 2.48 0 6.42-0.9 8.75-2.01 2.34-1.11 7.29-4.48 11-7.5 3.72-3.02 7.32-5.5 8-5.52 0.69-0.01 1.58 0.32 1.98 0.75 0.4 0.43 0.02 1.9-0.85 3.28-0.87 1.38-4.02 4.53-7 7-2.99 2.47-8.23 6.21-11.65 8.29-3.43 2.09-8.7 4.49-11.73 5.34-3.02 0.84-6.62 1.27-8 0.94-1.37-0.34-3.96-1.5-5.75-2.59-1.99-1.22-4.07-3.81-5.37-6.73-1.55-3.46-1.97-5.84-1.53-8.75 0.32-2.2 1.7-6.25 3.05-9 1.36-2.75 4.41-7.22 6.78-9.93 2.38-2.72 7-6.66 10.27-8.75 3.27-2.1 6.98-3.82 8.25-3.82zm-16.58 19.75c-0.61 1.24-1.13 3.49-1.15 5l-0.03 2.75c3.37-3.1 6.09-6.14 8.21-8.75 2.12-2.61 3.85-5.65 3.85-6.75 0-1.1-0.58-2-1.3-2-0.71 0-2.91 1.69-4.88 3.75-1.97 2.06-4.08 4.76-4.7 6z"/>
</svg>