<svg xmlns="http://www.w3.org/2000/svg" viewBox="0 17.200000762939453 106.94999694824219 31.599998474121094" data-asc="0.95" width="106.94999694824219" height="31.599998474121094"><defs/><g fill="#ffffff"><g transform="translate(0, 0)"><path d="M8.20 47.05Q7.85 47.05 7.03 46.88Q6.20 46.70 5.47 46.42Q4.75 46.15 4.70 45.85Q4.70 45.55 5.28 45.45Q5.85 45.35 6.47 45.33Q7.10 45.30 7.20 45.30Q9.05 45.30 11.45 44.60Q13.85 43.90 16.40 42.65Q18.95 41.40 21.30 39.75Q23.65 38.10 25.52 36.13Q27.40 34.15 28.40 32.05Q29.40 29.95 29.15 27.85Q28.85 25.25 27.63 23.63Q26.40 22 24.52 21.07Q22.65 20.15 20.48 19.75Q18.30 19.35 16.10 19.25Q13.90 19.15 12 19.15Q10.15 19.15 8.20 19.25Q6.25 19.35 4.55 19.90Q4.05 20.05 3.55 20.20Q3.05 20.35 2.50 20.35Q2.45 20.35 2.20 20.32Q1.95 20.30 1.95 20.15Q1.85 19.45 2.60 18.95Q3.35 18.45 4.53 18.10Q5.70 17.75 6.97 17.55Q8.25 17.35 9.30 17.27Q10.35 17.20 10.80 17.20Q13.15 17.20 15.75 17.42Q18.35 17.65 20.90 18.32Q23.45 19 25.60 20.25Q27.75 21.50 29.15 23.55Q30.55 25.60 30.90 28.65Q30.95 28.95 30.95 29.25Q30.95 29.55 30.95 29.80Q30.95 32.80 29.48 35.42Q28 38.05 25.52 40.17Q23.05 42.30 20.05 43.85Q17.05 45.40 13.95 46.23Q10.85 47.05 8.20 47.05M1.95 48.10Q1.30 48.10 0.85 47.52Q0.40 46.95 0.20 46.20Q0 45.45 0 45.05Q0 43.85 0.77 41.58Q1.55 39.30 2.83 36.48Q4.10 33.65 5.68 30.77Q7.25 27.90 8.83 25.47Q10.40 23.05 11.80 21.57Q13.20 20.10 14.10 20.10Q14.60 20.10 15.50 20.60Q16.40 21.10 16.45 21.65Q16.50 21.85 15.38 23.17Q14.25 24.50 12.50 26.57Q10.75 28.65 8.83 31.15Q6.90 33.65 5.20 36.25Q3.50 38.85 2.50 41.23Q1.50 43.60 1.70 45.40Q1.75 45.70 1.85 45.90Q1.95 46.10 2.30 46.10Q2.85 46.10 3.25 45.77Q3.65 45.45 3.80 45.45Q3.90 45.45 3.92 45.58Q3.95 45.70 3.95 45.70Q4.05 46.55 3.42 47.33Q2.80 48.10 1.95 48.10ZM31.60 47.05Q28.60 47.05 28.60 44.10Q28.60 42.95 29.23 41.42Q29.85 39.90 30.90 38.35Q31.95 36.80 33.25 35.48Q34.55 34.15 35.93 33.33Q37.30 32.50 38.50 32.50Q38.90 32.50 39.08 32.67Q39.25 32.85 39.35 33.25Q39.45 33.45 39.50 33.70Q39.55 33.95 39.65 34.20Q39.85 34.55 40 34.90Q40.15 35.25 40.15 35.65Q40.15 36.15 39.90 36.52Q39.65 36.90 39.30 37.20Q38.80 37.65 37.80 38.33Q36.80 39 35.63 39.67Q34.45 40.35 33.38 40.85Q32.30 41.35 31.65 41.45Q31.20 42.15 30.73 43.17Q30.25 44.20 30.25 45.05Q30.25 45.50 30.48 45.85Q30.70 46.20 31.20 46.20Q32 46.20 33.33 45.42Q34.65 44.65 36.10 43.52Q37.55 42.40 38.78 41.33Q40 40.25 40.60 39.65L42.20 37.95Q42.50 37.65 42.85 37.65Q43.15 37.65 43.15 37.90Q43.15 38.20 42.30 39.13Q41.45 40.05 40.28 41.17Q39.10 42.30 38.10 43.23Q37.10 44.15 36.80 44.40Q35.75 45.30 34.40 46.17Q33.05 47.05 31.60 47.05M32.50 40.15Q33 39.85 34.03 39.20Q35.05 38.55 36.15 37.75Q37.25 36.95 38.03 36.15Q38.80 35.35 38.80 34.75Q38.80 34.60 38.75 34.50Q38.70 34.45 38.55 34.45Q37.90 34.45 37 35.15Q36.10 35.85 35.20 36.83Q34.30 37.80 33.58 38.73Q32.85 39.65 32.50 40.15ZM43.70 48.80Q42.80 48.80 42.18 48.20Q41.55 47.60 41.23 46.73Q40.90 45.85 40.90 45.05Q40.90 44.25 41.10 43.48Q41.30 42.70 41.65 41.95Q42.30 40.50 43.23 38.73Q44.15 36.95 45.23 35.08Q46.30 33.20 47.40 31.65Q46.55 32 45.43 32.42Q44.30 32.85 43.95 32.85Q43.75 32.80 43.68 32.55Q43.60 32.30 43.60 32.05Q43.60 31 44.60 30.65Q46.15 30.15 48.75 29.75Q50.65 27.25 52.88 24.75Q55.10 22.25 57.40 20.80Q57.85 20.50 58.40 21.07Q58.95 21.65 59 22.25Q59 22.80 58.60 23Q56.60 24.25 54.90 25.82Q53.20 27.40 51.40 29.40Q52.40 29.25 53.15 29.20Q53.90 29.15 54.10 29.15Q54.25 29.15 54.60 29.13Q54.95 29.10 55.35 29.10Q55.95 29.10 56.48 29.20Q57 29.30 57 29.55Q57 29.75 56.58 29.88Q56.15 30 55.65 30.02Q55.15 30.05 54.90 30.10Q53.40 30.30 52.23 30.50Q51.05 30.70 50.05 31Q48.90 32.40 48.28 33.35Q47.65 34.30 47.23 35.08Q46.80 35.85 46.20 36.80Q44.90 39.30 43.98 41.90Q43.05 44.50 43.05 46.10Q43.05 46.35 43.10 46.50Q43.15 46.65 43.40 46.65Q43.70 46.65 43.98 46.48Q44.25 46.30 44.45 46.10Q45.15 45.55 45.78 44.83Q46.40 44.10 47 43.45Q48.10 42.25 49.25 41.10Q50.40 39.95 51.50 38.80Q51.60 38.70 51.70 38.63Q51.80 38.55 51.90 38.55Q52.25 38.55 52.25 38.95Q52.25 39.10 52.05 39.40Q51.45 40.20 50.75 40.98Q50.05 41.75 49.40 42.55Q48.10 44.10 46.83 45.60Q45.55 47.10 44.30 48.70Q44.15 48.75 44 48.77Q43.85 48.80 43.70 48.80ZM55.70 48.10Q54.90 48.10 54.03 47.27Q53.15 46.45 53.15 45.65Q53.15 44.65 53.85 43.38Q54.55 42.10 55.50 40.90Q56.45 39.70 57.15 38.83Q57.85 37.95 57.85 37.65L57.85 37.55Q57.40 37.15 57.00 36.77Q56.60 36.40 55.90 36.40Q55.40 36.40 54.63 37Q53.85 37.60 53.05 38.40Q52.25 39.20 51.60 39.90Q50.95 40.60 50.65 40.85Q50.45 41.05 50.28 41.10Q50.10 41.15 50.00 41.15Q49.80 41.15 49.80 40.95Q49.80 40.75 50.00 40.55Q50.80 39.50 51.85 38.40Q52.90 37.30 53.75 36.38Q54.60 35.45 54.75 35.05Q55.15 33.90 55.58 33Q56.00 32.10 56.95 31.30Q57.35 30.90 57.90 30.65Q58.45 30.40 59.00 30.40Q59.50 30.40 59.83 30.68Q60.15 30.95 60.15 31.50Q60.15 32.10 59.63 32.70Q59.10 33.30 58.40 33.83Q57.70 34.35 57.18 34.75Q56.65 35.15 56.70 35.40Q57.00 35.60 57.88 35.90Q58.75 36.20 59.10 36.20Q59.50 36.20 59.85 36.05Q60.20 35.90 60.55 35.90Q61.05 35.90 61.55 36.20Q62.05 36.50 62.05 37.10Q62.05 37.60 61.68 38.02Q61.30 38.45 60.90 38.75Q60.30 39.20 59.30 40.10Q58.30 41 57.28 42.10Q56.25 43.20 55.53 44.27Q54.80 45.35 54.80 46.15Q54.80 46.35 54.90 46.55Q54.95 46.60 55.10 46.60Q56.10 46.60 57.35 45.70Q58.60 44.80 59.88 43.50Q61.15 42.20 62.28 40.92Q63.40 39.65 64.20 38.95Q64.30 38.85 64.45 38.75Q64.60 38.65 64.75 38.65Q65 38.65 65 39Q65 39.20 64.33 40Q63.65 40.80 62.60 41.90Q61.55 43 60.43 44.15Q59.30 45.30 58.35 46.17Q57.40 47.05 57.00 47.40Q56.45 47.85 56.20 47.98Q55.95 48.10 55.70 48.10ZM65.20 48.05Q63.75 48.05 63.05 46.88Q62.35 45.70 62.35 44.45Q62.35 42.75 63.25 40.77Q64.15 38.80 65.42 37Q66.70 35.20 67.70 34.05Q67.95 33.75 68.35 33.75Q68.80 33.75 69.25 34.10Q70.30 33.35 71.68 32.75Q73.05 32.15 74.35 32.15Q76.60 32.15 76.60 34.45Q76.60 36.65 75.53 38.50Q74.45 40.35 73.15 42.10Q72.80 42.55 72.48 42.95Q72.15 43.35 71.75 43.75Q73.95 43.15 75.60 41.75Q77.25 40.35 78.85 38.85Q79.05 38.65 79.23 38.52Q79.40 38.40 79.70 38.40Q79.95 38.40 79.95 38.75Q79.95 38.80 79.80 39Q79.65 39.20 79.60 39.30Q77.95 41.30 75.53 43.02Q73.10 44.75 70.45 45.15Q69.50 46.10 68.05 47.08Q66.60 48.05 65.20 48.05M69.10 44.10Q69.30 44.10 69.48 44.10Q69.65 44.10 69.85 44.05Q70.85 42.85 71.93 41.20Q73 39.55 73.75 37.77Q74.50 36 74.50 34.55Q74.50 33.65 73.65 33.65Q72.80 33.65 71.70 34.15Q70.60 34.65 69.85 35.20L69.85 35.35Q69.85 35.85 69.08 36.77Q68.30 37.70 67.42 38.65Q66.55 39.60 66.15 40.25Q66 41.90 66.80 43Q67.60 44.10 69.10 44.10M65.25 47.20Q66.20 47.20 67.13 46.50Q68.05 45.80 68.70 45.20Q67.50 45.10 66.53 44.38Q65.55 43.65 64.75 42.75Q64.60 43.05 64.35 43.90Q64.10 44.75 64.10 45.60Q64.10 46.25 64.35 46.73Q64.60 47.20 65.25 47.20ZM88.60 28.65Q87.45 28.65 87.45 27.80Q87.45 27.20 88.10 26.50Q88.75 25.80 90.00 25.50Q90.75 25.30 91.23 25.27Q91.70 25.25 92.15 25.10Q91.95 26.05 91.33 27.15Q90.70 28.25 89.70 28.50Q89.20 28.65 88.60 28.65M80.60 48.55Q79.80 48.55 79.13 47.90Q78.45 47.25 78.30 46.50Q78.45 45.55 78.98 44.17Q79.50 42.80 80.20 41.30Q80.90 39.80 81.60 38.48Q82.30 37.15 82.80 36.35Q81.85 37.20 80.78 38.25Q79.70 39.30 78.75 40.20Q78.70 40.25 78.53 40.40Q78.35 40.55 78.20 40.55Q77.85 40.55 77.85 40.25Q77.85 40 78.05 39.80Q79.40 38.30 80.88 36.80Q82.35 35.30 83.75 33.70Q84.20 33.15 84.53 32.83Q84.85 32.50 85.55 32.50Q85.85 32.50 86.48 32.63Q87.10 32.75 87.53 33.05Q87.95 33.35 87.65 33.80Q87.30 34.35 86.45 35.60Q85.60 36.85 84.53 38.45Q83.45 40.05 82.43 41.67Q81.40 43.30 80.75 44.60Q80.10 45.90 80.10 46.55Q80.10 46.85 80.30 46.85Q80.60 46.85 81.33 46.30Q82.05 45.75 82.78 45.13Q83.50 44.50 83.75 44.30Q85.20 43.05 86.60 41.73Q88.00 40.40 89.25 38.95Q89.35 38.85 89.53 38.65Q89.70 38.45 89.90 38.45Q90.15 38.45 90.15 38.75Q90.15 39.10 89.90 39.45Q89.25 40.25 88.45 41.02Q87.65 41.80 86.95 42.55Q85.65 43.85 84.43 45.13Q83.20 46.40 82.00 47.75Q81.75 48.05 81.38 48.30Q81.00 48.55 80.60 48.55ZM91.65 48.80Q90.75 48.80 90.13 48.20Q89.50 47.60 89.18 46.73Q88.85 45.85 88.85 45.05Q88.85 44.25 89.05 43.48Q89.25 42.70 89.60 41.95Q90.25 40.50 91.18 38.73Q92.10 36.95 93.18 35.08Q94.25 33.20 95.35 31.65Q94.50 32 93.38 32.42Q92.25 32.85 91.90 32.85Q91.70 32.80 91.63 32.55Q91.55 32.30 91.55 32.05Q91.55 31 92.55 30.65Q94.10 30.15 96.70 29.75Q98.60 27.25 100.83 24.75Q103.05 22.25 105.35 20.80Q105.80 20.50 106.35 21.07Q106.90 21.65 106.95 22.25Q106.95 22.80 106.55 23Q104.55 24.25 102.85 25.82Q101.15 27.40 99.35 29.40Q100.35 29.25 101.10 29.20Q101.85 29.15 102.05 29.15Q102.20 29.15 102.55 29.13Q102.90 29.10 103.30 29.10Q103.90 29.10 104.43 29.20Q104.95 29.30 104.95 29.55Q104.95 29.75 104.53 29.88Q104.10 30 103.60 30.02Q103.10 30.05 102.85 30.10Q101.35 30.30 100.18 30.50Q99.00 30.70 98.00 31Q96.85 32.40 96.23 33.35Q95.60 34.30 95.18 35.08Q94.75 35.85 94.15 36.80Q92.85 39.30 91.93 41.90Q91.00 44.50 91.00 46.10Q91.00 46.35 91.05 46.50Q91.10 46.65 91.35 46.65Q91.65 46.65 91.93 46.48Q92.20 46.30 92.40 46.10Q93.10 45.55 93.73 44.83Q94.35 44.10 94.95 43.45Q96.05 42.25 97.20 41.10Q98.35 39.95 99.45 38.80Q99.55 38.70 99.65 38.63Q99.75 38.55 99.85 38.55Q100.20 38.55 100.20 38.95Q100.20 39.10 100.00 39.40Q99.40 40.20 98.70 40.98Q98.00 41.75 97.35 42.55Q96.05 44.10 94.78 45.60Q93.50 47.10 92.25 48.70Q92.10 48.75 91.95 48.77Q91.80 48.80 91.65 48.80Z"/></g></g></svg>